HIERARCHY
ROOT Hips
{
	OFFSET 0.000000 0.000000 0.000000
	CHANNELS 6 Xposition Yposition Zposition Xrotation Yrotation Zrotation
	JOINT LeftUpLeg_virtual
	{
		OFFSET 0.000000 0.000000 0.000000
		CHANNELS 3 Xrotation Yrotation Zrotation
		JOINT LeftUpLeg
		{
			OFFSET 11.394100 -6.187798 -0.413800
			CHANNELS 3 Xrotation Yrotation Zrotation
			JOINT LeftLeg
			{
				OFFSET 0.430247 -32.302673 3.732800
				CHANNELS 3 Xrotation Yrotation Zrotation
				JOINT LeftFoot
				{
					OFFSET -0.430247 -48.264931 -6.423300
					CHANNELS 3 Xrotation Yrotation Zrotation
					JOINT LeftToeBase
					{
						OFFSET 4.230900 -16.068199 23.438400
						CHANNELS 3 Xrotation Yrotation Zrotation
						JOINT LeftToe_End
						{
							OFFSET 4.510700 0.695400 19.974600
							CHANNELS 3 Xrotation Yrotation Zrotation
							End Site
							{
								OFFSET 0 0 0
							}
						}
					}
				}
			}
		}
	}
	JOINT RightUpLeg_virtual
	{
		OFFSET 0.000000 0.000000 0.000000
		CHANNELS 3 Xrotation Yrotation Zrotation
		JOINT RightUpLeg
		{
			OFFSET -11.333700 -6.187798 -0.413800
			CHANNELS 3 Xrotation Yrotation Zrotation
			JOINT RightLeg
			{
				OFFSET -0.430392 -32.302628 3.733000
				CHANNELS 3 Xrotation Yrotation Zrotation
				JOINT RightFoot
				{
					OFFSET 0.430392 -48.264973 -6.423500
					CHANNELS 3 Xrotation Yrotation Zrotation
					JOINT RightToeBase
					{
						OFFSET -4.230900 -16.068199 23.438400
						CHANNELS 3 Xrotation Yrotation Zrotation
						JOINT RightToe_End
						{
							OFFSET -4.510700 0.695400 19.974600
							CHANNELS 3 Xrotation Yrotation Zrotation
							End Site
							{
								OFFSET 0 0 0
							}
						}
					}
				}
			}
		}
	}
	JOINT Spine_virtual
	{
		OFFSET 0.000000 0.000000 0.000000
		CHANNELS 3 Xrotation Yrotation Zrotation
		JOINT Spine
		{
			OFFSET -0.002400 12.777504 0.315300
			CHANNELS 3 Xrotation Yrotation Zrotation
			JOINT Spine1
			{
				OFFSET -0.002067 5.816869 0.032633
				CHANNELS 3 Xrotation Yrotation Zrotation
				JOINT Spine1_split
				{
					OFFSET -0.002067 5.816869 0.032633
					CHANNELS 3 Xrotation Yrotation Zrotation
					JOINT Spine2
					{
						OFFSET -0.002067 5.816869 0.032633
						CHANNELS 3 Xrotation Yrotation Zrotation
						JOINT Neck_virtual
						{
							OFFSET 0.000000 0.000000 0.000000
							CHANNELS 3 Xrotation Yrotation Zrotation
							JOINT Neck
							{
								OFFSET -0.003700 21.199493 -0.826900
								CHANNELS 3 Xrotation Yrotation Zrotation
								JOINT Head
								{
									OFFSET 0.000000 20.442200 4.834800
									CHANNELS 3 Xrotation Yrotation Zrotation
									JOINT HeadTop_End
									{
										OFFSET 0.000000 34.668396 4.968400
										CHANNELS 3 Xrotation Yrotation Zrotation
										End Site
										{
											OFFSET 0 0 0
										}
									}
								}
							}
						}
						JOINT LeftShoulder_virtual
						{
							OFFSET 0.000000 0.000000 0.000000
							CHANNELS 3 Xrotation Yrotation Zrotation
							JOINT LeftShoulder
							{
								OFFSET 3.288150 8.794197 -1.372250
								CHANNELS 3 Xrotation Yrotation Zrotation
								JOINT LeftShoulder_split
								{
									OFFSET 3.288150 8.794197 -1.372250
									CHANNELS 3 Xrotation Yrotation Zrotation
									JOINT LeftArm
									{
										OFFSET 11.953299 -2.279007 -0.146200
										CHANNELS 3 Xrotation Yrotation Zrotation
										JOINT LeftForeArm
										{
											OFFSET 18.448900 0.000000 0.000000
											CHANNELS 3 Xrotation Yrotation Zrotation
											JOINT LeftHand
											{
												OFFSET 29.527798 0.000000 0.000000
												CHANNELS 3 Xrotation Yrotation Zrotation
												End Site
												{
													OFFSET 0 0 0
												}
											}
										}
									}
								}
							}
						}
						JOINT RightShoulder_virtual
						{
							OFFSET 0.000000 0.000000 0.000000
							CHANNELS 3 Xrotation Yrotation Zrotation
							JOINT RightShoulder
							{
								OFFSET -3.249400 8.794197 -1.372250
								CHANNELS 3 Xrotation Yrotation Zrotation
								JOINT RightShoulder_split
								{
									OFFSET -3.249400 8.794197 -1.372250
									CHANNELS 3 Xrotation Yrotation Zrotation
									JOINT RightArm
									{
										OFFSET -11.953299 -2.279007 -0.146200
										CHANNELS 3 Xrotation Yrotation Zrotation
										JOINT RightForeArm
										{
											OFFSET -18.448900 0.000000 0.000000
											CHANNELS 3 Xrotation Yrotation Zrotation
											JOINT RightHand
											{
												OFFSET -29.527802 0.000000 0.000000
												CHANNELS 3 Xrotation Yrotation Zrotation
												End Site
												{
													OFFSET 0 0 0
												}
											}
										}
									}
								}
							}
						}
					}
				}
			}
		}
	}
}
MOTION
Frames: 9
Frame Time: 0.03333333
4.270645 89.136192 -0.300720 0.000000 0.000000 0.000000 157.846068 -87.269996 158.501725 -29.206306 30.945005 37.894706 29.839013 -12.886653 1.814818 -7.569362 6.433704 -19.414845 -0.566427 -0.682716 -0.637077 0.000000 0.000000 0.000000 167.767273 -87.337656 168.953048 -49.214709 -7.003623 -22.952893 22.903298 8.936673 -5.165550 17.691399 13.075708 17.881987 4.127728 0.961059 1.882045 0.000000 0.000000 0.000000 54.729592 -88.817827 55.757898 6.179410 -0.117339 -7.099070 1.209624 0.059539 -0.875890 0.903565 0.397822 0.275445 0.000000 0.000000 0.000000 1.897244 -0.345544 -1.290618 -10.456089 4.856040 3.797948 29.247293 75.447376 -32.402875 0.000000 0.000000 0.000000 3.125812 -0.474881 -0.825081 5.554988 -4.190606 11.104244 -2.150357 -3.592232 1.293231 -38.405648 5.935723 4.464638 -4.017960 -10.306370 -0.156889 0.000000 0.000000 0.000000 2.631093 -0.375601 -1.463690 -1.569449 0.397699 -18.646386 2.473806 1.863983 6.556532 -61.189001 53.780995 54.226648 179.754774 41.283842 -178.783603 0.000000 0.000000 0.000000 
4.277394 89.137115 -0.286251 0.000000 0.000000 0.000000 158.151500 -87.269846 158.811638 -29.216824 30.927616 37.908694 29.843760 -12.895109 1.816775 -7.566799 6.425415 -19.411174 -0.561715 -0.681386 -0.639148 0.000000 0.000000 0.000000 167.955281 -87.368051 169.149553 -49.192173 -6.961128 -22.949866 22.842241 8.937560 -5.170219 17.689056 13.090239 17.923253 4.083535 0.949755 1.872154 0.000000 0.000000 0.000000 55.825288 -88.840728 56.880453 6.182335 -0.119530 -7.094484 1.208739 0.038739 -0.882854 0.874836 0.308268 0.270559 0.000000 0.000000 0.000000 1.905293 -0.360748 -1.289518 -10.432480 4.844739 3.796633 29.318010 75.517372 -32.507415 0.000000 0.000000 0.000000 3.128385 -0.493387 -0.823303 5.564065 -4.210842 11.136110 -2.086803 -3.573175 1.343868 -38.394788 5.959590 4.454216 -3.984823 -10.335042 -0.140745 0.000000 0.000000 0.000000 2.619051 -0.395984 -1.457173 -1.574228 0.352798 -18.677892 2.430087 1.875839 6.522147 -61.363444 53.848361 54.297258 179.739064 41.214062 -178.784791 0.000000 0.000000 0.000000 
4.278712 89.128906 -0.271374 0.000000 0.000000 0.000000 158.471208 -87.264122 159.143394 -29.221728 30.889664 37.907912 29.849791 -12.906033 1.816473 -7.556975 6.426612 -19.422094 -0.547110 -0.679277 -0.646087 0.000000 0.000000 0.000000 167.944912 -87.399469 169.147340 -49.167417 -6.948263 -22.968634 22.798972 8.902209 -5.171115 17.597707 13.067830 17.928960 4.113177 0.953334 1.882749 0.000000 0.000000 0.000000 55.726195 -88.838536 56.808842 6.191932 -0.121580 -7.081303 1.219235 -0.000314 -0.887842 0.861660 0.244506 0.283955 0.000000 0.000000 0.000000 1.921075 -0.397120 -1.289663 -10.384602 4.802684 3.818547 29.636286 75.637679 -32.887170 0.000000 0.000000 0.000000 3.140515 -0.534847 -0.823367 5.582270 -4.226005 11.193911 -2.037039 -3.574526 1.430856 -38.399320 6.074439 4.360978 -3.953592 -10.438750 -0.128339 0.000000 0.000000 0.000000 2.620363 -0.436857 -1.446836 -1.580000 0.291481 -18.733915 2.396747 1.860040 6.507313 -61.569005 53.942505 54.363856 179.718123 41.192328 -178.801143 0.000000 0.000000 0.000000 
4.274956 89.113541 -0.259979 0.000000 0.000000 0.000000 158.751027 -87.244520 159.438718 -29.218846 30.835067 37.892274 29.856294 -12.914756 1.812838 -7.538140 6.433631 -19.442478 -0.524078 -0.675868 -0.659449 0.000000 0.000000 0.000000 167.671800 -87.425110 168.883845 -49.156151 -6.963151 -23.012463 22.782315 8.849627 -5.166211 17.464939 13.026976 17.921655 4.172845 0.971928 1.899850 0.000000 0.000000 0.000000 54.474788 -88.809582 55.580695 6.208002 -0.125667 -7.062129 1.239254 -0.059229 -0.889970 0.870986 0.208476 0.318919 0.000000 0.000000 0.000000 1.939160 -0.456812 -1.290578 -10.317057 4.733343 3.864162 30.179129 75.808522 -33.513512 0.000000 0.000000 0.000000 3.156404 -0.602227 -0.824595 5.609307 -4.233259 11.284608 -2.012784 -3.590479 1.523444 -38.430978 6.283036 4.200353 -3.929839 -10.592170 -0.115966 0.000000 0.000000 0.000000 2.630883 -0.499661 -1.432776 -1.587966 0.215376 -18.810623 2.367917 1.816789 6.510167 -61.761986 54.030129 54.429026 179.695515 41.225581 -178.829502 0.000000 0.000000 0.000000 
4.266957 89.096664 -0.251366 0.000000 0.000000 0.000000 158.873506 -87.210553 159.574557 -29.213597 30.764934 37.867228 29.854166 -12.915307 1.803890 -7.509171 6.438510 -19.464644 -0.495159 -0.671503 -0.676548 0.000000 0.000000 0.000000 167.105851 -87.446564 168.326843 -49.162663 -6.994649 -23.081977 22.791450 8.809581 -5.153743 17.334800 12.995281 17.945576 4.187019 1.000533 1.912265 0.000000 0.000000 0.000000 52.530240 -88.763144 53.654862 6.227974 -0.132943 -7.037123 1.264262 -0.140595 -0.889265 0.884979 0.210069 0.338537 0.000000 0.000000 0.000000 1.951855 -0.541549 -1.291731 -10.233950 4.638277 3.933683 30.887509 76.017355 -34.314614 0.000000 0.000000 0.000000 3.172263 -0.698211 -0.827227 5.645562 -4.229847 11.412336 -2.009811 -3.626015 1.589318 -38.497036 6.569165 3.995433 -3.915981 -10.756371 -0.100863 0.000000 0.000000 0.000000 2.642902 -0.585369 -1.415341 -1.598855 0.124795 -18.905853 2.341147 1.762673 6.520029 -61.932337 54.073843 54.506265 179.678453 41.306880 -178.866918 0.000000 0.000000 0.000000 
4.256938 89.084381 -0.249409 0.000000 0.000000 0.000000 158.668750 -87.174019 159.374049 -29.203249 30.679656 37.836625 29.839068 -12.904798 1.789495 -7.470571 6.431694 -19.478759 -0.463359 -0.668262 -0.693008 0.000000 0.000000 0.000000 166.302470 -87.466569 167.529254 -49.171987 -7.029314 -23.166253 22.819151 8.797499 -5.137915 17.231953 12.973982 18.016480 4.125731 1.032254 1.911839 0.000000 0.000000 0.000000 50.231981 -88.703967 51.370707 6.246544 -0.142770 -7.005352 1.288656 -0.247952 -0.887908 0.879403 0.251360 0.336829 0.000000 0.000000 0.000000 1.954451 -0.652793 -1.294611 -10.142826 4.519793 4.022381 31.702811 76.246556 -35.217371 0.000000 0.000000 0.000000 3.185206 -0.822862 -0.830167 5.691684 -4.213646 11.574778 -2.027926 -3.680078 1.630301 -38.597764 6.905102 3.760814 -3.910531 -10.899529 -0.080785 0.000000 0.000000 0.000000 2.648488 -0.696150 -1.395060 -1.614208 0.025458 -19.021971 2.320317 1.707869 6.533987 -62.079945 54.051877 54.618820 179.671036 41.412817 -178.904115 0.000000 0.000000 0.000000 
4.246653 89.083160 -0.246902 0.000000 0.000000 0.000000 158.068636 -87.152831 158.766491 -29.195374 30.587841 37.809656 29.812085 -12.876807 1.769074 -7.432651 6.405197 -19.476459 -0.428909 -0.667006 -0.704290 0.000000 0.000000 0.000000 165.381296 -87.488139 166.610280 -49.169449 -7.052027 -23.253702 22.847601 8.806471 -5.121282 17.148623 12.937836 18.122418 4.020557 1.058526 1.906333 0.000000 0.000000 0.000000 47.675342 -88.632981 48.821625 6.260867 -0.152882 -6.963485 1.307957 -0.383190 -0.886653 0.863616 0.313720 0.325641 0.000000 0.000000 0.000000 1.945241 -0.790007 -1.300028 -10.045746 4.387982 4.122158 32.578445 76.486644 -36.167170 0.000000 0.000000 0.000000 3.193725 -0.975344 -0.832016 5.745506 -4.184003 11.768856 -2.056246 -3.709943 1.649221 -38.718075 7.254621 3.512124 -3.915687 -11.015832 -0.054937 0.000000 0.000000 0.000000 2.644033 -0.833502 -1.375099 -1.634128 -0.078649 -19.157364 2.306907 1.657489 6.540007 -62.224505 53.965277 54.770597 179.673058 41.519152 -178.933225 0.000000 0.000000 0.000000 
4.239264 89.092812 -0.245350 0.000000 0.000000 0.000000 157.112396 -87.164552 157.791426 -29.202064 30.488913 37.793486 29.775629 -12.833256 1.745926 -7.400080 6.345403 -19.458152 -0.392404 -0.668415 -0.705038 0.000000 0.000000 0.000000 164.314339 -87.525350 165.537407 -49.142057 -7.052366 -23.329601 22.868423 8.820128 -5.104682 17.058548 12.852796 18.231149 3.924493 1.072929 1.907442 0.000000 0.000000 0.000000 45.072613 -88.553006 46.220532 6.271856 -0.160557 -6.907755 1.317963 -0.544911 -0.886265 0.852203 0.367146 0.311197 0.000000 0.000000 0.000000 1.926861 -0.951986 -1.308039 -9.952844 4.252149 4.224139 33.496211 76.732859 -37.143866 0.000000 0.000000 0.000000 3.195091 -1.152848 -0.832657 5.804088 -4.142584 11.980445 -2.091431 -3.719074 1.660577 -38.845109 7.584040 3.267575 -3.931863 -11.105981 -0.025321 0.000000 0.000000 0.000000 2.633528 -0.996170 -1.359752 -1.657828 -0.182333 -19.308007 2.277425 1.607822 6.557143 -62.362421 53.844089 54.939006 179.685174 41.598536 -178.949467 0.000000 0.000000 0.000000 
4.237167 89.108894 -0.251266 0.000000 0.000000 0.000000 155.912059 -87.207049 156.566691 -29.232554 30.386549 37.789606 29.740641 -12.781786 1.724594 -7.375397 6.237747 -19.436579 -0.354828 -0.673089 -0.690913 0.000000 0.000000 0.000000 162.984474 -87.593283 164.192570 -49.080244 -7.028765 -23.382523 22.882805 8.819567 -5.091816 16.940901 12.689604 18.311121 3.854732 1.072933 1.915117 0.000000 0.000000 0.000000 42.676156 -88.463408 43.819024 6.281493 -0.164812 -6.836501 1.319569 -0.728151 -0.887402 0.836461 0.411689 0.294037 0.000000 0.000000 0.000000 1.905986 -1.135176 -1.317935 -9.866300 4.124890 4.316044 34.450214 76.981279 -38.144195 0.000000 0.000000 0.000000 3.188900 -1.350879 -0.833001 5.861906 -4.091764 12.187545 -2.134356 -3.727992 1.683512 -38.959153 7.887508 3.039987 -3.957207 -11.183426 0.005569 0.000000 0.000000 0.000000 2.621890 -1.180784 -1.349647 -1.685742 -0.282164 -19.463995 2.228301 1.553807 6.578962 -62.490500 53.712768 55.093310 179.707167 41.645866 -178.951530 0.000000 0.000000 0.000000 
